<svg id="Layer_1" data-name="Layer 1" xmlns="http://www.w3.org/2000/svg" viewBox="0 0 196.1 124.89"><title>spanjevic stone logo 1  crna</title><path d="M393.77,244.24c-3.9,0-3.44-.34-3.46,2.53,0,2.71-.4,2.32,3.51,2.37,3.26,0,3.43-.15,3.45-3.63C397.28,243.05,394.69,244.85,393.77,244.24Z" transform="translate(-298.69 -243.68)"/><path d="M406,249.08c3.44,0,3,.33,3.06-2.54,0-2.71.35-2.32-3.1-2.36-2.86,0-3,.14-3,3.63C402.94,250.26,405.22,248.46,406,249.08Z" transform="translate(-298.69 -243.68)"/><path d="M368.51,251.4c-.22,3.2.49,4.63,2.36,4.35,2.66-.42,5.34-.58,8.17-.88a66,66,0,0,1,7.59.81c2,.44,2.71-.84,2.46-4.33a31.56,31.56,0,0,1,0-4c.17-2.88-.5-4-2.07-3.57-5.41,1.57-10.87,1.17-16.31.92C367.64,244.55,368.7,248.61,368.51,251.4Z" transform="translate(-298.69 -243.68)"/><path d="M408.5,264.57c4.42-.25,8.6-.4,12.77-.76,2.91-.25,4,1,3.68,3.76-.3,2.42,1.35,5.93-3.43,5.81-8.51-.22-17-.56-25.5.79-2.46.39-3.49-.59-3.23-3.09a15.4,15.4,0,0,0,0-3.46c-.38-3,.68-4.13,3.84-3.75C400.64,264.34,404.69,264.36,408.5,264.57Z" transform="translate(-298.69 -243.68)"/><path d="M399.57,250.06c2.72-.15,5.3-.24,7.88-.45,1.79-.15,2.48.59,2.27,2.22-.19,1.43.83,3.51-2.12,3.43-5.25-.12-10.51-.32-15.74.47-1.52.24-2.15-.35-2-1.82a8.78,8.78,0,0,0,0-2c-.23-1.79.43-2.44,2.38-2.22C394.71,249.93,397.21,249.94,399.57,250.06Z" transform="translate(-298.69 -243.68)"/><path d="M384.15,281c4.3-.26,8.37-.41,12.42-.79,2.84-.26,3.92,1,3.59,3.95-.3,2.54,1.31,6.22-3.35,6.09-8.27-.23-16.56-.58-24.79.84-2.4.41-3.4-.62-3.15-3.24a17,17,0,0,0,0-3.64c-.37-3.18.66-4.34,3.74-3.94C376.5,280.8,380.45,280.82,384.15,281Z" transform="translate(-298.69 -243.68)"/><path d="M410.64,253.7c.1,10.82-.93,9.55,7.48,9.56,7.91,0,6.78,1.07,6.84-9.79.05-9-.48-9.49-10.66-9.47C407.12,244,412.41,251.14,410.64,253.7Z" transform="translate(-298.69 -243.68)"/><path d="M369,268c.1-12.9-.88-11.39,7.09-11.4,7.5,0,6.43-1.28,6.49,11.67,0,10.77-.46,11.32-10.11,11.3C365.68,279.55,370.7,271,369,268Z" transform="translate(-298.69 -243.68)"/><path d="M411.72,286.18c.09,13.3-.86,11.74,6.91,11.75,7.32,0,6.28,1.32,6.33-12,.05-11.09-.44-11.66-9.86-11.64C408.46,274.27,413.36,283,411.72,286.18Z" transform="translate(-298.69 -243.68)"/><path d="M404.78,308.6c-5.64.26-11,.4-16.33.77-3.73.25-5.15-1-4.71-3.82.38-2.45-1.74-6,4.39-5.89,10.89.22,21.79.56,32.62-.81,3.15-.4,4.47.6,4.14,3.14a12.51,12.51,0,0,0,0,3.51c.49,3.07-.87,4.2-4.92,3.81C414.85,308.83,409.66,308.81,404.78,308.6Z" transform="translate(-298.69 -243.68)"/><path d="M369,300.91c.1-9.51-.88-8.39,7.09-8.4,7.5,0,6.43-.95,6.49,8.59,0,7.93-.46,8.34-10.11,8.33C365.68,309.42,370.7,303.15,369,300.91Z" transform="translate(-298.69 -243.68)"/><polygon points="2.48 80.5 4.28 80.35 5.59 81.36 6.9 80.35 8.71 80.5 5.59 82.97 2.48 80.5"/><polygon points="110.57 81.97 113.89 80.35 114.42 81.76 110.95 82.97 110.57 81.97"/><path d="M308.92,329.4l-1.8,2.62a5.14,5.14,0,0,0-2.72-.87c-.88,0-1.88.5-1.88,1.46s1.68,1.46,2.54,1.73c2.63.71,4.82,2.33,4.82,5h0a5.3,5.3,0,0,1-5.59,5.14,8.94,8.94,0,0,1-5.6-2l1.65-2.8a6.64,6.64,0,0,0,3.91,1.54c1.11,0,2.33-.54,2.33-1.85s-1.74-1.71-2.82-2c-2.25-.61-4.54-2-4.54-4.72a5,5,0,0,1,5.18-4.68A7.76,7.76,0,0,1,308.92,329.4Z" transform="translate(-298.69 -243.68)"/><path d="M317.81,328.31a6.22,6.22,0,0,1,0,12.43h-2.59v3.39H312V328.31Zm-2.59,9.22h2.59a3,3,0,0,0,0-6h-2.59Z" transform="translate(-298.69 -243.68)"/><path d="M333.08,328.31l5.77,15.82h-3.42l-1.24-3.39h-5.63l-1.24,3.39H323.9l5.76-15.82Zm-3.35,9.2H333L331.37,333Z" transform="translate(-298.69 -243.68)"/><path d="M343.56,328.31l7.28,9.59v-9.59h3.23v15.82h-2.89l-7.28-9.59v9.59h-3.23V328.31Zm-2.89,15.82h0Z" transform="translate(-298.69 -243.68)"/><path d="M355.58,343.07l1.73-2.64a3.18,3.18,0,0,0,1.95.8c1.51,0,1.89-1.14,1.9-2.19V328.31h3.22v11.12a4.82,4.82,0,0,1-4.83,5.08A6.74,6.74,0,0,1,355.58,343.07Z" transform="translate(-298.69 -243.68)"/><path d="M377.28,328.31v3.23h-7.23v3.2h7v3h-7v3.19h7.23v3.23H366.83V328.31Z" transform="translate(-298.69 -243.68)"/><path d="M382.7,328.31l4.11,11.28,4.11-11.28h3.44l-5.76,15.82H385l-5.77-15.82Z" transform="translate(-298.69 -243.68)"/><path d="M399.57,328.31v15.82h-3.23V328.31Z" transform="translate(-298.69 -243.68)"/><path d="M416.08,330l-1.87,2.77a6.3,6.3,0,0,0-3.85-1.36,4.88,4.88,0,1,0,0,9.73,6.3,6.3,0,0,0,3.85-1.36l1.87,2.77a8.93,8.93,0,0,1-5.73,2,8.3,8.3,0,1,1,0-16.58A8.94,8.94,0,0,1,416.08,330Z" transform="translate(-298.69 -243.68)"/><path d="M434,329.4,432.14,332a5.1,5.1,0,0,0-2.71-.87c-.89,0-1.89.5-1.89,1.46s1.69,1.46,2.54,1.73c2.64.71,4.83,2.33,4.83,5h0a5.31,5.31,0,0,1-5.59,5.14,8.92,8.92,0,0,1-5.6-2l1.65-2.8a6.62,6.62,0,0,0,3.91,1.54c1.1,0,2.33-.54,2.33-1.85s-1.74-1.71-2.83-2c-2.25-.61-4.53-2-4.53-4.72a5,5,0,0,1,5.17-4.68A7.8,7.8,0,0,1,434,329.4Z" transform="translate(-298.69 -243.68)"/><path d="M448.8,328.31v3.25h-4.68v12.57H440.8V331.56h-4.68v-3.25Z" transform="translate(-298.69 -243.68)"/><path d="M466.37,336.22a8.33,8.33,0,1,1-8.33-8.29A8.31,8.31,0,0,1,466.37,336.22Zm-13.43,0a5.1,5.1,0,1,0,5.1-5.1A5.1,5.1,0,0,0,452.94,336.22Z" transform="translate(-298.69 -243.68)"/><path d="M471.4,328.31l7.28,9.59v-9.59h3.23v15.82H479l-7.28-9.59v9.59h-3.23V328.31Zm-2.89,15.82h0Z" transform="translate(-298.69 -243.68)"/><path d="M494.79,328.31v3.23h-7.23v3.2h7v3h-7v3.19h7.23v3.23H484.34V328.31Z" transform="translate(-298.69 -243.68)"/><path d="M311.67,355.72l-.87,1a6.54,6.54,0,0,0-4.35-1.57c-3.67,0-6.42,2.35-6.42,6a6.24,6.24,0,0,0,6.42,6.05,6.57,6.57,0,0,0,4-1.24l0-4.44h-3v-1.4h4.31l.06,6.36a7.25,7.25,0,0,1-5.36,2.05,7.59,7.59,0,0,1-7.76-7.38,7.37,7.37,0,0,1,7.76-7.38A7.74,7.74,0,0,1,311.67,355.72Z" transform="translate(-298.69 -243.68)"/><path d="M350.93,354.14a5.18,5.18,0,0,1,5.38,5.13,5.1,5.1,0,0,1-4.44,5.05l4.78,3.9h-1.93L350,364.4h-2.08v3.82h-1.33V354.14Zm-3,1.37v7.56h3a3.81,3.81,0,1,0,0-7.6h-3Z" transform="translate(-298.69 -243.68)"/><path d="M405.54,361.18a7.38,7.38,0,1,1-7.38-7.38A7.39,7.39,0,0,1,405.54,361.18Zm-13.42,0a6,6,0,1,0,6-6A6,6,0,0,0,392.12,361.18Z" transform="translate(-298.69 -243.68)"/><path d="M441.41,354.14v9.44a3.77,3.77,0,0,0,7.53,0v-9.44h1.34v9.44a5.1,5.1,0,0,1-10.2,0v-9.44Z" transform="translate(-298.69 -243.68)"/><path d="M489.41,354.14a5.14,5.14,0,1,1,0,10.26h-3v3.82h-1.33V354.14Zm-3,8.93h3a3.81,3.81,0,1,0,0-7.6h-3Z" transform="translate(-298.69 -243.68)"/></svg>