<svg id="Layer_1" data-name="Layer 1" xmlns="http://www.w3.org/2000/svg" viewBox="0 0 246.78 60.41"><defs><style>.cls-1{fill:#ec4e20;}</style></defs><title>spanjevic stone logo 2 boja</title><polygon class="cls-1" points="71.89 10.23 73.52 10.09 74.69 11 75.88 10.09 77.51 10.23 74.69 12.46 71.89 10.23"/><polygon class="cls-1" points="169.52 11.56 172.52 10.09 173 11.37 169.86 12.46 169.52 11.56"/><path class="cls-1" d="M352.79,290.86l-1.64,2.37a4.57,4.57,0,0,0-2.45-.79c-.8,0-1.7.45-1.7,1.32s1.52,1.32,2.29,1.57c2.38.63,4.36,2.1,4.36,4.52h0a4.79,4.79,0,0,1-5,4.64,8.06,8.06,0,0,1-5.06-1.84l1.5-2.53a5.89,5.89,0,0,0,3.53,1.39c1,0,2.1-.48,2.1-1.66s-1.57-1.55-2.55-1.85c-2-.55-4.1-1.78-4.1-4.26a4.48,4.48,0,0,1,4.68-4.23A7,7,0,0,1,352.79,290.86Z" transform="translate(-273.9 -275.92)"/><path class="cls-1" d="M360.81,289.88a5.61,5.61,0,0,1,0,11.22h-2.34v3.07h-2.89V289.88Zm-2.34,8.32h2.34a2.73,2.73,0,0,0,0-5.43h-2.34Z" transform="translate(-273.9 -275.92)"/><path class="cls-1" d="M374.61,289.88l5.21,14.29h-3.09l-1.12-3.07h-5.09l-1.12,3.07h-3.09l5.21-14.29Zm-3,8.3h3l-1.49-4.06Z" transform="translate(-273.9 -275.92)"/><path class="cls-1" d="M384.07,289.88l6.58,8.66v-8.66h2.91v14.29H391l-6.58-8.66v8.66h-2.92V289.88Zm-2.61,14.29h0Z" transform="translate(-273.9 -275.92)"/><path class="cls-1" d="M394.93,303.21l1.56-2.38a2.9,2.9,0,0,0,1.76.72c1.36,0,1.71-1,1.72-2v-9.69h2.91v10a4.36,4.36,0,0,1-4.37,4.59A6.06,6.06,0,0,1,394.93,303.21Z" transform="translate(-273.9 -275.92)"/><path class="cls-1" d="M414.53,289.88v2.92H408v2.88h6.29v2.69H408v2.88h6.53v2.92h-9.44V289.88Z" transform="translate(-273.9 -275.92)"/><path class="cls-1" d="M419.43,289.88l3.71,10.18,3.71-10.18H430l-5.2,14.29h-3.23l-5.21-14.29Z" transform="translate(-273.9 -275.92)"/><path class="cls-1" d="M434.66,289.88v14.29h-2.91V289.88Z" transform="translate(-273.9 -275.92)"/><path class="cls-1" d="M449.58,291.36l-1.69,2.5a5.67,5.67,0,0,0-3.48-1.23,4.41,4.41,0,1,0,0,8.79,5.73,5.73,0,0,0,3.48-1.23l1.69,2.5a8.09,8.09,0,0,1-5.17,1.82,7.5,7.5,0,1,1,0-15A8,8,0,0,1,449.58,291.36Z" transform="translate(-273.9 -275.92)"/><path class="cls-1" d="M465.72,290.86l-1.64,2.37a4.54,4.54,0,0,0-2.45-.79c-.8,0-1.7.45-1.7,1.32s1.52,1.32,2.3,1.57c2.38.63,4.35,2.1,4.35,4.52h0a4.79,4.79,0,0,1-5,4.64,8,8,0,0,1-5.06-1.84l1.49-2.53a5.94,5.94,0,0,0,3.53,1.39c1,0,2.1-.48,2.1-1.66s-1.57-1.55-2.55-1.85c-2-.55-4.1-1.78-4.1-4.26a4.48,4.48,0,0,1,4.68-4.23A7,7,0,0,1,465.72,290.86Z" transform="translate(-273.9 -275.92)"/><path class="cls-1" d="M479.13,289.88v2.93h-4.22v11.36h-3V292.81h-4.22v-2.93Z" transform="translate(-273.9 -275.92)"/><path class="cls-1" d="M495,297a7.53,7.53,0,1,1-7.52-7.49A7.5,7.5,0,0,1,495,297Zm-12.13,0a4.61,4.61,0,1,0,4.61-4.61A4.61,4.61,0,0,0,482.87,297Z" transform="translate(-273.9 -275.92)"/><path class="cls-1" d="M499.54,289.88l6.58,8.66v-8.66H509v14.29h-2.61l-6.58-8.66v8.66h-2.91V289.88Zm-2.6,14.29h0Z" transform="translate(-273.9 -275.92)"/><path class="cls-1" d="M520.67,289.88v2.92h-6.52v2.88h6.28v2.69h-6.28v2.88h6.52v2.92h-9.44V289.88Z" transform="translate(-273.9 -275.92)"/><path class="cls-1" d="M355.27,314.63l-.79.9a5.86,5.86,0,0,0-3.93-1.42c-3.32,0-5.8,2.12-5.8,5.46a5.63,5.63,0,0,0,5.8,5.46,6,6,0,0,0,3.63-1.12l0-4h-2.69v-1.26h3.88l.06,5.75a6.52,6.52,0,0,1-4.83,1.86,6.86,6.86,0,0,1-7-6.67,6.65,6.65,0,0,1,7-6.67A7,7,0,0,1,355.27,314.63Z" transform="translate(-273.9 -275.92)"/><path class="cls-1" d="M390.73,313.21a4.67,4.67,0,0,1,4.86,4.63,4.62,4.62,0,0,1-4,4.57l4.32,3.52h-1.75l-4.24-3.46H388v3.46h-1.2V313.21Zm-2.7,1.23v6.83h2.7a3.44,3.44,0,1,0,0-6.86H388Z" transform="translate(-273.9 -275.92)"/><path class="cls-1" d="M440.05,319.57a6.67,6.67,0,1,1-6.66-6.67A6.68,6.68,0,0,1,440.05,319.57Zm-12.12,0a5.46,5.46,0,1,0,5.46-5.46A5.45,5.45,0,0,0,427.93,319.57Z" transform="translate(-273.9 -275.92)"/><path class="cls-1" d="M472.46,313.21v8.52a3.4,3.4,0,0,0,6.8,0v-8.52h1.21v8.52a4.61,4.61,0,0,1-9.21,0v-8.52Z" transform="translate(-273.9 -275.92)"/><path class="cls-1" d="M515.81,313.21a4.64,4.64,0,1,1,0,9.26h-2.7v3.46h-1.2V313.21Zm-2.7,8.06h2.7a3.44,3.44,0,1,0,0-6.86h-2.7Z" transform="translate(-273.9 -275.92)"/><path class="cls-1" d="M297.14,276.43c-3.59,0-3.16-.31-3.18,2.33s-.37,2.13,3.23,2.17c3,0,3.14-.13,3.16-3.33C300.36,275.34,298,277,297.14,276.43Z" transform="translate(-273.9 -275.92)"/><path class="cls-1" d="M308.4,280.88c3.16,0,2.78.31,2.8-2.34,0-2.48.33-2.13-2.84-2.17-2.64,0-2.77.14-2.79,3.34C305.56,282,307.65,280.32,308.4,280.88Z" transform="translate(-273.9 -275.92)"/><path class="cls-1" d="M273.93,283c-.2,2.94.45,4.26,2.17,4,2.45-.39,4.91-.54,7.5-.81a59.43,59.43,0,0,1,7,.75c1.86.4,2.48-.78,2.26-4a30.12,30.12,0,0,1,0-3.68c.15-2.65-.46-3.69-1.9-3.27-5,1.43-10,1.07-15,.84C273.14,276.72,274.11,280.45,273.93,283Z" transform="translate(-273.9 -275.92)"/><path class="cls-1" d="M310.67,295.11c4.06-.23,7.9-.36,11.73-.69,2.68-.23,3.7.91,3.38,3.45-.27,2.22,1.25,5.44-3.15,5.33-7.82-.2-15.65-.51-23.42.73-2.26.36-3.21-.54-3-2.83a14.18,14.18,0,0,0,0-3.19c-.35-2.78.62-3.79,3.53-3.45C303.45,294.9,307.17,294.92,310.67,295.11Z" transform="translate(-273.9 -275.92)"/><path class="cls-1" d="M302.46,281.78c2.51-.14,4.88-.22,7.24-.41,1.65-.14,2.29.54,2.09,2-.17,1.31.77,3.22-2,3.15a82.09,82.09,0,0,0-14.45.43c-1.4.22-2-.32-1.84-1.67a7.88,7.88,0,0,0,0-1.88c-.22-1.65.39-2.25,2.18-2C298,281.66,300.3,281.67,302.46,281.78Z" transform="translate(-273.9 -275.92)"/><path class="cls-1" d="M288.3,310.24c3.95-.25,7.69-.38,11.41-.73,2.61-.24,3.6,1,3.29,3.63-.26,2.33,1.21,5.71-3.06,5.59-7.61-.21-15.22-.53-22.79.77-2.19.38-3.12-.57-2.89-3a15.54,15.54,0,0,0,0-3.34c-.34-2.92.61-4,3.44-3.62C281.27,310,284.9,310,288.3,310.24Z" transform="translate(-273.9 -275.92)"/><path class="cls-1" d="M312.64,285.12c.09,9.95-.86,8.78,6.87,8.79,7.26,0,6.23,1,6.28-9,0-8.3-.44-8.72-9.79-8.71C309.4,276.22,314.26,282.77,312.64,285.12Z" transform="translate(-273.9 -275.92)"/><path class="cls-1" d="M274.4,298.26c.09-11.86-.81-10.47,6.51-10.48,6.89,0,5.91-1.17,6,10.72.05,9.89-.42,10.4-9.28,10.39C271.34,308.88,276,301.06,274.4,298.26Z" transform="translate(-273.9 -275.92)"/><path class="cls-1" d="M313.63,315c.08,12.22-.8,10.79,6.35,10.8,6.72,0,5.77,1.21,5.82-11.05,0-10.19-.41-10.71-9.06-10.7C310.63,304,315.13,312.07,313.63,315Z" transform="translate(-273.9 -275.92)"/><path class="cls-1" d="M307.26,335.56c-5.19.24-10.11.37-15,.71-3.42.23-4.73-.93-4.33-3.51.35-2.25-1.59-5.52,4-5.41,10,.2,20,.51,30-.74,2.9-.37,4.11.55,3.81,2.88a11.28,11.28,0,0,0,0,3.23c.45,2.82-.81,3.85-4.52,3.5C316.5,335.77,311.74,335.75,307.26,335.56Z" transform="translate(-273.9 -275.92)"/><path class="cls-1" d="M274.4,328.49c.09-8.73-.81-7.71,6.51-7.71,6.89,0,5.91-.87,6,7.9.05,7.28-.42,7.65-9.28,7.64C271.34,336.32,276,330.56,274.4,328.49Z" transform="translate(-273.9 -275.92)"/></svg>